<?xml version="1.0" standalone="no"?>
<!DOCTYPE svg PUBLIC "-//W3C//DTD SVG 20010904//EN"
 "http://www.w3.org/TR/2001/REC-SVG-20010904/DTD/svg10.dtd">
<svg version="1.0" xmlns="http://www.w3.org/2000/svg"
 width="900.000000pt" height="900.000000pt" viewBox="0 0 900.000000 900.000000"
 preserveAspectRatio="xMidYMid meet">
<metadata>
Created by potrace 1.11, written by Peter Selinger 2001-2013
</metadata>
<g transform="translate(0.000000,900.000000) scale(0.100000,-0.100000)"
fill="#000000" stroke="none">
<path d="M4646 8301 c238 -272 480 -649 635 -991 71 -156 171 -428 193 -521
65 -284 104 -489 133 -709 28 -209 25 -737 -4 -955 -88 -644 -302 -1216 -656
-1750 -83 -126 -218 -306 -227 -303 -4 2 -44 45 -90 96 -81 89 -110 109 -110
76 0 -28 347 -364 471 -456 121 -89 159 -114 172 -110 4 1 7 -2 7 -8 0 -5 16
-16 35 -24 19 -8 35 -20 35 -25 0 -6 6 -11 14 -11 8 0 16 -4 18 -9 5 -14 107
-75 193 -116 312 -146 489 -218 515 -210 29 9 203 197 289 312 155 206 269
426 343 663 44 141 60 177 73 170 19 -10 6 -80 -41 -221 -57 -170 -166 -393
-263 -540 -79 -119 -237 -307 -298 -356 -52 -41 -61 -71 -25 -84 15 -6 38 -8
52 -6 14 3 28 -1 35 -9 5 -8 33 -18 60 -23 28 -5 130 -25 228 -45 254 -51 319
-57 532 -54 l189 3 38 55 c51 72 66 90 78 90 19 0 10 -28 -25 -79 -20 -28 -33
-56 -30 -61 9 -14 133 -11 174 4 28 10 44 29 85 100 28 49 56 89 61 89 6 0 27
-34 47 -76 42 -87 68 -104 37 -24 -78 198 -148 339 -259 524 -38 64 -70 125
-70 136 0 55 -323 433 -535 626 -193 175 -474 365 -727 491 -177 88 -382 174
-491 205 -32 9 -60 22 -63 29 -3 7 9 55 26 107 17 52 34 115 37 141 7 54 22
71 62 70 42 -1 337 -102 476 -162 206 -90 476 -232 563 -297 41 -30 92 -47 93
-30 6 81 -26 305 -66 462 -72 284 -198 549 -374 790 -38 51 -42 59 -15 30 86
-95 233 -333 305 -491 101 -226 179 -572 179 -794 l0 -68 153 -115 c696 -523
1174 -1185 1427 -1975 29 -89 50 -168 47 -176 -7 -19 -282 -73 -508 -101 -182
-23 -587 -31 -775 -16 -217 17 -571 74 -629 100 -11 5 -87 28 -170 51 -435
121 -898 347 -1280 623 -166 120 -314 249 -476 413 -261 265 -410 450 -604
748 -42 66 -83 126 -91 133 -34 34 -224 420 -224 455 0 10 40 25 128 47 134
34 170 36 183 11 4 -8 48 -99 98 -202 50 -103 104 -202 119 -220 16 -18 57
-76 92 -128 62 -93 174 -245 224 -305 39 -46 33 -6 -7 47 -170 224 -293 431
-417 701 -49 105 -61 140 -51 146 53 33 691 49 898 22 136 -18 148 -14 167 51
14 50 15 83 1 38 -6 -20 -12 -22 -49 -16 -212 30 -354 38 -596 33 -265 -6
-385 -18 -601 -62 -819 -167 -1563 -642 -2058 -1315 -30 -41 -59 -77 -63 -78
-35 -15 -269 -444 -353 -646 -44 -107 -45 -126 -6 -126 56 0 87 29 127 117 20
46 40 83 45 83 4 0 31 -42 60 -94 36 -66 60 -98 78 -105 68 -28 553 -18 741
14 174 30 553 126 573 145 5 4 -31 48 -80 97 -48 49 -110 118 -136 153 -47 63
-48 64 -6 15 64 -74 222 -235 239 -245 38 -20 471 179 690 317 157 99 430 296
430 311 0 4 -21 15 -48 26 -26 10 -78 37 -117 59 -290 167 -490 443 -545 752
-6 39 -18 91 -26 117 -31 104 -11 165 64 198 26 12 58 23 72 25 14 2 37 8 52
14 15 6 34 8 42 5 8 -3 31 -49 52 -102 104 -271 290 -601 496 -880 70 -95 76
-110 56 -130 -14 -14 -4 -16 21 -3 15 8 35 -9 119 -104 56 -63 102 -119 102
-124 0 -14 -155 -162 -280 -266 -387 -323 -894 -596 -1375 -743 -145 -44 -210
-59 -400 -96 -303 -58 -493 -76 -810 -76 -321 0 -562 25 -835 86 -111 25 -116
26 -147 8 -40 -21 -41 -42 -3 -72 52 -41 406 -107 703 -131 221 -19 668 -10
789 15 22 4 40 -8 126 -86 536 -491 1174 -790 1892 -887 204 -27 690 -25 887
5 717 108 1317 393 1851 881 l93 85 152 -12 c410 -32 851 -4 1235 79 135 29
152 39 152 92 0 67 -134 432 -244 661 -97 204 -259 472 -383 636 -40 53 -41
45 5 265 51 243 65 389 66 670 0 341 -28 571 -109 880 -149 572 -446 1089
-853 1488 -92 90 -132 118 -118 82 11 -28 -9 -15 -90 63 -93 89 -129 119 -239
202 -44 33 -85 64 -92 70 -61 51 -393 239 -529 301 -87 39 -240 97 -366 138
-54 18 -107 40 -118 49 -12 9 -25 37 -31 61 -12 53 -134 299 -219 441 -140
234 -333 493 -468 629 -37 37 -53 51 -36 32z m937 -1372 c259 -89 547 -235
782 -397 44 -30 92 -66 107 -80 26 -24 38 -25 81 -7 33 14 18 -36 -28 -90 -51
-60 -72 -69 -112 -48 -180 96 -401 73 -540 -55 -61 -56 -53 -73 8 -19 137 120
321 150 476 78 l66 -31 -6 -36 -6 -37 39 6 c35 4 43 2 67 -26 14 -18 40 -61
57 -97 29 -60 31 -73 31 -171 0 -102 -1 -108 -38 -182 -25 -51 -51 -87 -79
-109 -100 -81 -114 -96 -102 -115 18 -29 66 -27 136 5 72 33 103 67 142 155
66 147 51 353 -34 478 -16 24 -30 54 -30 65 0 28 37 74 60 74 41 0 362 -352
505 -555 252 -356 392 -647 485 -1010 17 -66 38 -135 47 -153 21 -42 10 -64
-38 -73 -84 -16 -105 -18 -119 -9 -12 7 -9 13 15 32 16 13 40 26 54 29 22 6
21 7 -11 8 -33 1 -39 6 -78 66 -88 140 -219 233 -369 261 -116 22 -168 11
-258 -55 -40 -30 -73 -60 -73 -67 0 -21 12 -17 40 13 14 14 48 44 75 66 l50
40 76 -6 c42 -4 100 -15 130 -27 63 -23 163 -79 156 -86 -3 -3 -46 9 -97 26
-98 34 -218 44 -256 22 -15 -9 -2 -11 63 -12 179 0 319 -84 394 -236 l31 -63
-22 -32 -23 -32 24 -18 c13 -10 27 -19 32 -19 12 0 8 -71 -7 -127 -34 -129
-118 -232 -232 -285 -58 -27 -83 -33 -173 -38 -58 -3 -108 -5 -110 -3 -12 9
43 35 119 58 47 14 108 37 137 51 106 53 203 184 219 296 5 40 3 47 -13 52
-10 3 -93 -7 -184 -23 -94 -17 -184 -27 -210 -24 -57 6 -115 -24 -111 -57 2
-19 -18 -50 -32 -50 -3 0 -11 18 -17 40 -17 55 -30 50 -24 -7 9 -87 13 -293 5
-293 -4 0 -10 39 -14 88 -18 222 -101 539 -193 742 -69 152 -117 239 -206 372
-38 57 -49 56 -13 -1 14 -22 26 -47 26 -55 0 -8 5 -16 12 -18 8 -3 8 -9 0 -24
-11 -19 -11 -19 -18 1 -18 47 -210 293 -334 429 -56 61 -265 239 -334 285 -58
39 -69 52 -56 65 6 6 -1 21 -15 38 -17 20 -25 42 -25 66 0 46 -33 264 -60 402
-25 127 -69 296 -116 446 -34 113 -39 134 -28 134 3 0 47 -14 97 -31z m1608
-1066 c13 -16 12 -17 -3 -4 -10 7 -18 15 -18 17 0 8 8 3 21 -13z m105 -145
c69 -105 101 -168 84 -168 -5 0 -10 7 -10 15 0 8 -8 24 -17 34 -33 36 -43 50
-43 60 0 5 -4 11 -8 13 -8 3 -72 104 -72 114 0 3 -7 12 -15 20 -8 9 -15 20
-15 26 0 21 33 -18 96 -114z m-1525 -35 c16 -10 29 -21 29 -25 0 -4 5 -8 10
-8 12 0 18 -4 85 -64 28 -25 53 -46 58 -46 4 0 7 -7 7 -16 0 -8 5 -12 10 -9
13 8 13 -1 -2 -28 -10 -20 -10 -21 5 -9 22 19 42 5 22 -15 -14 -14 -13 -17 10
-37 14 -12 25 -30 25 -39 0 -14 5 -17 23 -12 22 7 22 7 2 -9 -19 -16 -19 -16
7 -12 22 4 32 -2 48 -24 11 -15 20 -33 20 -40 0 -7 7 -10 18 -5 14 5 15 4 5
-6 -18 -18 -16 -32 3 -25 13 5 14 3 6 -7 -14 -17 1 -42 19 -32 11 6 11 5 2 -5
-9 -10 -8 -16 3 -27 8 -8 11 -20 7 -26 -11 -18 -12 -37 -2 -37 5 0 9 8 9 17 0
16 1 16 18 -1 12 -13 14 -20 5 -23 -7 -3 -13 -11 -13 -19 0 -12 4 -12 21 -3
17 9 20 8 13 -2 -18 -29 -38 -48 -46 -43 -5 3 -17 -1 -27 -10 -17 -16 -19 -15
-24 4 -6 22 8 37 17 18 5 -10 7 -10 12 -1 3 7 12 9 21 6 10 -4 14 -2 9 5 -3 6
-19 9 -34 7 -15 -2 -30 -4 -35 -4 -4 -1 -5 -12 -1 -25 3 -13 1 -27 -5 -31 -7
-3 -11 -3 -10 2 4 25 -3 52 -15 56 -10 4 -13 1 -10 -7 3 -7 -2 -16 -12 -20
-12 -5 -15 -2 -10 9 3 9 2 13 -4 10 -6 -3 -10 1 -10 10 0 10 -10 5 -31 -17
-28 -30 -30 -30 -15 -6 18 31 20 38 8 38 -5 0 -14 -11 -20 -25 -11 -24 -42
-35 -42 -15 0 6 6 10 14 10 18 0 29 17 21 31 -5 6 -12 4 -20 -8 -7 -10 -17
-14 -21 -10 -5 4 -4 11 2 15 6 4 15 18 19 31 5 16 4 21 -4 17 -6 -4 -11 -14
-11 -22 0 -8 -5 -14 -11 -14 -7 0 -10 -12 -7 -29 2 -17 1 -28 -4 -25 -4 3 -8
1 -8 -4 0 -5 -9 -12 -20 -15 -15 -4 -20 0 -20 13 0 11 -4 22 -10 25 -5 3 -10
-1 -10 -11 0 -9 -21 -36 -46 -60 -35 -32 -45 -48 -41 -64 4 -17 3 -19 -8 -10
-8 6 -11 18 -8 26 9 24 -13 15 -27 -10 -7 -14 -20 -28 -28 -31 -12 -4 -13 -3
-3 9 7 8 15 29 17 45 4 24 2 31 -12 31 -13 0 -14 3 -4 15 7 8 8 15 4 15 -5 0
-6 36 -2 83 3 45 10 198 14 340 4 141 9 257 12 257 2 0 17 -8 33 -17z m440
-300 c13 -16 12 -17 -3 -4 -10 7 -18 15 -18 17 0 8 8 3 21 -13z m289 -336 c0
-18 -2 -19 -10 -7 -13 20 -13 43 0 35 6 -3 10 -16 10 -28z m-206 -3 c3 -8 2
-12 -4 -9 -6 3 -10 10 -10 16 0 14 7 11 14 -7z m-184 -8 c0 -3 -4 -8 -10 -11
-5 -3 -10 -1 -10 4 0 6 5 11 10 11 6 0 10 -2 10 -4z m142 -18 c-7 -7 -12 -8
-12 -2 0 14 12 26 19 19 2 -3 -1 -11 -7 -17z m-29 -3 c-3 -9 -8 -14 -10 -11
-3 3 -2 9 2 15 9 16 15 13 8 -4z m-60 -20 c-3 -9 -8 -14 -10 -11 -3 3 -2 9 2
15 9 16 15 13 8 -4z m104 -17 c-3 -7 -5 -2 -5 12 0 14 2 19 5 13 2 -7 2 -19 0
-25z m-397 9 c0 -7 -10 -13 -21 -14 -21 -2 -21 -1 -3 12 24 18 24 18 24 2z
m250 9 c0 -3 -4 -8 -10 -11 -5 -3 -10 -1 -10 4 0 6 5 11 10 11 6 0 10 -2 10
-4z m-400 -26 c0 -5 -4 -10 -10 -10 -5 0 -10 5 -10 10 0 6 5 10 10 10 6 0 10
-4 10 -10z m100 -14 c0 -3 -4 -8 -10 -11 -5 -3 -10 -1 -10 4 0 6 5 11 10 11 6
0 10 -2 10 -4z m50 0 c0 -2 -7 -9 -15 -16 -13 -11 -14 -10 -9 4 5 14 24 23 24
12z m-110 -40 c0 -3 -4 -8 -10 -11 -5 -3 -10 -1 -10 4 0 6 5 11 10 11 6 0 10
-2 10 -4z m1978 -652 c34 -270 18 -655 -39 -954 -25 -134 -29 -144 -41 -132
-6 6 0 68 16 173 14 90 30 232 37 314 15 194 0 510 -22 474 -6 -10 -10 -10
-23 0 -11 9 -20 10 -34 2 -29 -15 -32 3 -19 99 12 82 13 83 46 95 19 6 37 17
39 24 11 34 28 -6 40 -95z m-367 -12 c-18 -34 -36 -43 -66 -32 -15 6 -31 8
-36 4 -5 -3 -9 2 -9 12 0 11 6 15 18 12 10 -3 27 1 37 8 10 8 29 14 42 14 20
0 22 -3 14 -18z m-56 -52 c3 -5 1 -10 -4 -10 -6 0 -11 5 -11 10 0 6 2 10 4 10
3 0 8 -4 11 -10z m-1798 -117 c31 -10 59 -26 65 -37 15 -28 11 -210 -7 -304
-54 -286 -202 -525 -428 -693 -79 -60 -227 -139 -256 -139 -21 1 -81 55 -81
75 0 8 29 52 64 97 197 256 404 619 516 908 48 124 43 120 127 93z m-3200
-1070 c-5 -4 -47 105 -47 120 1 7 12 -17 26 -52 13 -35 23 -66 21 -68z m-167
23 c0 -2 -28 -17 -62 -34 -186 -92 -290 -285 -249 -460 16 -64 39 -72 90 -33
20 16 90 59 156 97 112 64 124 69 190 72 69 4 70 3 45 -14 -14 -9 -41 -32 -60
-49 -19 -18 -96 -67 -170 -110 -74 -42 -144 -85 -154 -95 -21 -21 -16 -47 11
-57 10 -4 38 -22 63 -39 123 -88 243 -91 419 -10 55 25 110 46 122 46 17 0 13
-8 -28 -46 -61 -58 -129 -90 -221 -105 -132 -22 -251 13 -357 106 -49 43 -49
44 -37 77 18 52 16 58 -24 58 -31 0 -37 4 -50 36 -22 52 -28 150 -15 216 24
115 85 202 206 296 l30 23 -38 -5 c-20 -3 -51 -14 -67 -26 -39 -28 -38 -14 2
27 31 32 34 33 115 33 46 0 83 -2 83 -4z m4844 -11 c0 -5 -13 -12 -30 -15
l-29 -5 46 -27 c61 -36 130 -113 164 -185 36 -77 46 -209 20 -295 -16 -58 -17
-58 -55 -58 l-38 0 13 -45 14 -44 -52 -47 c-166 -150 -413 -148 -587 5 -25 22
-43 41 -40 44 3 2 57 -21 120 -51 110 -53 118 -55 195 -55 95 1 155 21 251 84
96 64 94 71 -78 169 -79 45 -154 91 -168 101 -14 11 -40 29 -57 40 -50 32 -42
43 24 35 65 -8 63 -7 239 -109 72 -43 136 -77 142 -77 26 0 42 45 42 120 -1
104 -21 190 -60 250 -40 62 -137 134 -203 151 -79 19 -65 30 35 27 54 -2 93
-7 92 -13z m-4646 -75 c-2 -7 -10 1 -17 16 -12 27 -11 28 4 12 10 -9 16 -21
13 -28z m53 -102 c23 -46 65 -122 94 -171 29 -48 49 -85 45 -82 -18 11 -190
310 -190 330 0 16 13 -4 51 -77z m205 -335 c15 -20 23 -33 16 -29 -13 8 -56
66 -49 66 3 0 17 -17 33 -37z m4824 -13 c0 -24 -64 -155 -81 -165 -6 -4 -15
-3 -21 3 -7 7 4 37 36 96 47 85 66 105 66 66z m-4749 -82 c24 -29 36 -47 26
-39 -20 16 -81 91 -74 91 3 0 25 -24 48 -52z m-891 -11 c0 -13 -97 -77 -118
-77 -29 0 -9 29 43 63 44 28 75 34 75 14z m3734 -473 c33 -13 13 -32 -75 -73
-559 -260 -1198 -278 -1769 -51 -120 48 -176 75 -186 91 -10 17 24 7 190 -52
425 -152 830 -186 1246 -103 133 27 365 101 495 158 44 20 81 36 82 36 1 0 8
-3 17 -6z m-2099 -114 c3 -6 -1 -7 -9 -4 -18 7 -21 14 -7 14 6 0 13 -4 16 -10z
m85 -40 c30 -16 51 -29 45 -29 -5 0 -35 13 -65 29 -30 16 -50 29 -45 29 6 0
35 -13 65 -29z m-240 -71 c-70 -97 -90 -266 -43 -369 23 -50 116 -158 156
-179 38 -20 47 -7 107 160 28 79 57 156 62 171 12 33 81 98 103 98 13 0 12 -5
-4 -27 -10 -16 -21 -48 -25 -73 -3 -25 -29 -110 -59 -190 -71 -191 -70 -189
-43 -202 35 -15 160 7 232 42 94 46 156 114 215 236 27 57 54 106 59 109 13 8
23 -14 12 -28 -5 -7 -14 -39 -21 -72 -32 -168 -161 -298 -329 -334 -97 -20
-192 -10 -192 22 0 7 -6 21 -13 31 -13 17 -15 17 -45 2 -26 -13 -36 -14 -55
-5 -47 25 -80 56 -123 112 -76 102 -104 248 -69 363 20 67 20 81 -2 63 -9 -8
-24 -27 -35 -44 l-18 -30 0 35 c0 29 8 44 48 82 43 42 102 81 110 73 2 -2 -10
-22 -28 -46z m2499 -49 c59 -128 62 -256 7 -375 -28 -62 -109 -153 -160 -180
-33 -18 -34 -18 -70 3 -43 25 -48 26 -44 10 1 -7 -1 -25 -5 -40 -6 -23 -13
-27 -62 -33 -193 -25 -377 93 -450 287 -10 26 -21 46 -24 43 -4 -2 -7 22 -6
53 1 31 6 56 11 55 5 -1 14 -26 20 -55 19 -88 49 -140 121 -209 94 -91 144
-113 261 -117 80 -3 92 -2 92 13 0 9 -27 89 -60 177 -52 139 -60 171 -60 230
0 37 3 68 8 67 14 -1 82 -104 82 -124 0 -11 23 -84 52 -163 64 -181 69 -183
155 -99 34 33 77 88 95 121 29 55 32 69 32 141 0 57 -8 106 -28 170 -15 50
-30 99 -33 110 -14 46 35 -16 66 -85z m-2149 70 c8 -5 11 -10 5 -10 -5 0 -17
5 -25 10 -8 5 -10 10 -5 10 6 0 17 -5 25 -10z m3080 -218 c0 -30 -233 -220
-410 -335 -116 -75 -291 -171 -435 -239 -135 -63 -164 -72 -184 -59 -25 16 1
34 149 100 237 107 471 248 674 408 124 98 186 143 197 143 5 0 9 -8 9 -18z
m-3902 -338 c125 -76 320 -176 446 -230 86 -36 89 -37 103 -18 8 10 16 29 20
42 3 12 9 22 13 22 8 0 -21 -105 -33 -116 -4 -4 -55 15 -114 42 -254 114 -492
256 -694 410 -152 117 -147 126 9 15 78 -57 191 -132 250 -167z m2765 -321
c48 -47 -405 -163 -753 -193 -260 -22 -602 -10 -839 31 -187 32 -446 103 -486
133 -19 15 -19 15 13 16 18 0 81 -13 140 -30 282 -77 547 -112 857 -112 325 0
605 39 896 126 115 34 160 42 172 29z"/>
<path d="M6350 6386 c0 -2 7 -7 16 -10 8 -3 12 -2 9 4 -6 10 -25 14 -25 6z"/>
<path d="M6059 6306 c-78 -30 -123 -60 -187 -124 -81 -81 -112 -133 -93 -156
24 -29 52 -17 137 59 114 101 167 127 271 133 53 3 88 0 96 -7 11 -8 22 -7 46
5 44 22 39 53 -14 78 -52 25 -203 32 -256 12z"/>
<path d="M6320 6048 c-62 -73 -134 -146 -159 -163 -110 -72 -73 -149 44 -92
42 21 72 49 156 151 56 69 108 126 115 126 25 0 47 -97 42 -182 -5 -78 -4 -79
11 -52 27 51 19 157 -21 255 -48 120 -51 119 -188 -43z"/>
<path d="M6101 5948 c0 -4 -10 -30 -21 -58 -17 -42 -17 -50 -5 -50 8 0 15 9
15 21 0 11 5 29 11 40 5 11 8 28 6 37 -3 9 -5 14 -6 10z"/>
<path d="M5778 5850 c42 -26 52 -26 19 0 -14 11 -31 20 -39 20 -7 0 2 -9 20
-20z"/>
<path d="M6974 4771 c-55 -9 -116 -35 -135 -57 -9 -11 -6 -18 12 -34 22 -18
36 -20 169 -17 169 2 223 -11 296 -76 53 -46 55 -64 12 -71 -260 -43 -285 -49
-352 -85 -68 -36 -94 -66 -83 -96 5 -12 17 -5 54 33 27 27 62 56 78 64 32 17
298 71 353 72 38 1 39 9 9 78 -30 68 -109 140 -184 168 -65 24 -155 32 -229
21z"/>
<path d="M6080 5329 c0 -5 5 -7 10 -4 6 3 10 8 10 11 0 2 -4 4 -10 4 -5 0 -10
-5 -10 -11z"/>
<path d="M6105 5240 c-3 -5 -1 -10 4 -10 6 0 11 5 11 10 0 6 -2 10 -4 10 -3 0
-8 -4 -11 -10z"/>
<path d="M6060 5139 c0 -5 5 -7 10 -4 6 3 10 8 10 11 0 2 -4 4 -10 4 -5 0 -10
-5 -10 -11z"/>
<path d="M6145 5130 c-3 -5 -1 -10 4 -10 6 0 11 5 11 10 0 6 -2 10 -4 10 -3 0
-8 -4 -11 -10z"/>
<path d="M6110 5113 c0 -5 5 -15 10 -23 8 -12 10 -11 10 8 0 12 -4 22 -10 22
-5 0 -10 -3 -10 -7z"/>
<path d="M5912 5064 c-7 -8 -8 -14 -3 -14 10 0 25 19 20 25 -2 1 -10 -3 -17
-11z"/>
<path d="M4450 7548 c-105 -114 -288 -404 -409 -644 -165 -332 -264 -661 -318
-1061 -24 -181 -24 -633 0 -830 20 -161 63 -393 74 -404 5 -4 19 -3 32 2 17 7
22 15 18 32 -29 131 -36 184 -27 207 20 50 203 142 372 189 186 51 401 53 583
6 112 -29 275 -104 348 -160 31 -23 52 -34 58 -28 5 5 17 65 26 134 25 186 25
654 -1 852 -18 141 -18 148 -2 160 17 13 17 16 1 78 -27 101 -25 97 -39 77 -8
-11 -17 -14 -27 -7 -29 18 -45 9 -19 -11 l25 -21 -30 7 c-16 3 -46 10 -65 15
-219 54 -608 75 -840 45 -108 -14 -250 -42 -314 -62 -15 -5 -18 -2 -14 13 3
11 1 27 -4 36 -5 10 -5 23 1 34 5 10 29 81 53 158 32 102 49 141 61 143 10 2
17 -3 17 -13 0 -21 48 -115 59 -115 4 0 13 -11 19 -25 13 -29 47 -33 61 -7 5
9 12 53 16 97 11 131 37 205 97 270 52 57 120 100 143 91 10 -3 11 -34 7 -134
-4 -122 -3 -133 22 -198 28 -75 68 -127 94 -122 10 2 28 26 42 53 23 46 25 63
30 230 6 205 5 204 86 163 99 -49 163 -165 165 -302 1 -73 13 -120 23 -95 4 9
0 69 -8 134 -12 102 -19 129 -56 202 -31 62 -52 92 -83 115 -89 65 -167 86
-187 49 -6 -11 -10 -90 -10 -183 0 -140 -3 -173 -21 -226 -11 -34 -25 -60 -29
-57 -4 3 -15 26 -24 52 -12 36 -16 89 -16 240 l0 193 -27 0 c-41 0 -142 -52
-187 -95 -84 -83 -119 -166 -131 -309 -10 -113 -29 -84 -23 36 3 67 10 107 26
143 56 122 160 215 282 249 l62 18 29 -28 29 -28 29 28 29 28 58 -17 c225 -65
367 -306 294 -497 -11 -29 -20 -68 -20 -85 0 -28 4 -33 24 -33 51 0 122 132
113 209 -9 78 16 26 73 -152 58 -183 69 -212 75 -205 6 6 -37 177 -72 283
-105 324 -288 678 -498 965 -34 47 -68 98 -76 115 -20 41 -43 42 -79 3z m126
-150 c26 -35 61 -74 77 -88 18 -15 28 -33 26 -44 -4 -16 -17 -18 -156 -18 -83
0 -156 3 -162 6 -21 13 -11 36 27 60 21 13 46 36 55 50 18 27 77 96 82 96 2 0
25 -28 51 -62z m-96 -312 c0 -42 -5 -79 -13 -89 -7 -10 -39 -25 -72 -33 -84
-22 -150 -58 -210 -115 -75 -71 -110 -142 -140 -291 -3 -17 -12 -28 -22 -28
-43 0 24 218 102 331 24 35 56 89 70 118 14 30 37 69 50 87 22 28 31 32 87 36
67 6 88 -3 88 -33 0 -11 5 -19 10 -19 6 0 10 18 10 40 0 41 18 83 32 74 4 -3
8 -38 8 -78z m299 -4 c21 -15 160 -263 161 -286 0 -5 -14 11 -30 36 -48 72
-176 168 -225 168 -14 0 -7 -8 22 -24 23 -14 58 -37 78 -52 51 -39 25 -48 -38
-13 -53 29 -81 40 -154 59 -46 12 -58 36 -20 42 17 2 23 10 25 38 2 19 9 40
17 46 20 15 136 6 164 -14z m86 -1037 c39 -9 87 -19 108 -22 45 -6 54 -18 33
-42 -20 -22 -21 -38 -1 -21 9 8 15 9 15 2 0 -6 -5 -14 -11 -17 -6 -4 -8 -14
-5 -22 4 -10 2 -13 -8 -10 -12 5 -13 1 -6 -17 6 -17 4 -30 -5 -42 -8 -11 -14
-28 -14 -39 1 -16 2 -15 8 5 5 20 8 22 13 9 4 -9 0 -29 -8 -44 -10 -20 -11
-32 -4 -39 7 -7 10 -4 11 9 0 12 3 15 6 7 3 -7 -1 -20 -9 -29 -11 -15 -11 -16
5 -10 20 7 23 -3 5 -21 -7 -7 -8 -12 -2 -12 5 0 10 -11 10 -25 1 -15 -3 -25
-12 -25 -8 0 -14 -9 -14 -20 0 -11 5 -20 11 -20 6 0 9 7 5 15 -3 8 -1 15 4 15
12 0 9 -59 -2 -66 -10 -6 -1 -24 12 -24 5 0 10 8 12 18 3 14 5 13 10 -5 4 -16
2 -23 -8 -23 -8 0 -11 -6 -8 -15 4 -8 1 -22 -6 -30 -6 -8 -9 -19 -5 -25 6 -9
-6 -14 -31 -11 -7 1 -14 -10 -16 -24 -6 -31 0 -32 12 -2 8 21 9 21 9 -5 1 -15
-3 -30 -9 -33 -5 -3 -10 -11 -10 -16 0 -6 5 -7 10 -4 6 4 8 -3 6 -17 -7 -34
-7 -35 -15 -13 -8 19 -9 18 -21 -7 -7 -14 -23 -29 -36 -32 -13 -4 -24 -12 -24
-19 0 -8 -3 -8 -9 2 -5 8 -14 10 -22 5 -17 -10 -49 -13 -49 -4 0 4 7 13 15 20
8 7 15 18 15 24 -1 6 -6 5 -13 -4 -7 -8 -23 -24 -36 -35 -21 -17 -24 -18 -18
-3 5 16 4 16 -15 5 -16 -10 -22 -9 -25 1 -4 10 -8 10 -19 1 -11 -9 -14 -7 -15
12 l0 24 -9 -22 c-5 -13 -15 -23 -22 -23 -9 0 -9 3 2 10 12 8 10 10 -8 10 -13
0 -21 -3 -19 -7 3 -5 -12 -8 -34 -8 -32 0 -39 4 -40 20 0 19 -1 18 -11 -2 -12
-25 -33 -30 -42 -10 -5 9 -7 9 -12 -1 -5 -10 -9 -10 -20 -1 -11 9 -19 8 -36
-7 -21 -19 -21 -19 -13 6 7 21 6 23 -7 13 -8 -7 -18 -10 -21 -6 -4 3 -7 -1 -7
-10 0 -22 -9 -22 -26 1 -13 16 -15 16 -29 -2 -15 -19 -15 -19 -15 1 0 11 -7
23 -15 27 -8 3 -15 1 -15 -4 0 -5 -7 -16 -16 -25 -12 -12 -19 -13 -24 -5 -5 8
-12 7 -24 -5 -9 -9 -16 -12 -16 -7 0 5 7 15 15 22 8 7 15 18 15 24 0 6 -12 -2
-26 -18 -16 -18 -31 -26 -43 -23 -13 3 -23 -3 -31 -22 -7 -15 -14 -21 -17 -13
-3 6 -9 12 -14 12 -6 0 -7 -5 -4 -11 4 -5 -7 -15 -24 -22 -17 -6 -35 -23 -42
-39 -16 -39 -33 -48 -27 -15 3 15 1 24 -3 21 -5 -3 -9 -10 -9 -16 0 -12 -36
-46 -67 -65 -11 -6 -36 -9 -56 -6 -28 3 -36 1 -40 -14 -3 -13 -5 -11 -6 7 0
15 -5 30 -11 36 -14 14 -28 139 -29 264 -2 199 36 552 63 578 29 29 336 89
516 100 143 9 410 -3 495 -23z"/>
<path d="M4606 5314 c-4 -9 -4 -19 -1 -22 2 -3 7 3 11 12 4 9 4 19 1 22 -2 3
-7 -3 -11 -12z"/>
<path d="M3405 7061 c-339 -122 -639 -283 -895 -479 -522 -401 -881 -874
-1118 -1472 -120 -305 -169 -496 -218 -850 -27 -200 -28 -220 -28 -460 0 -244
16 -402 64 -637 11 -53 20 -97 20 -99 0 -2 6 -4 13 -4 6 1 41 38 77 82 237
296 658 686 868 804 31 17 72 45 91 61 189 157 781 426 1131 513 25 6 50 13
56 15 8 2 2 38 -18 112 -35 133 -39 141 -32 78 9 -84 -12 -31 -41 105 -40 188
-63 373 -76 598 -13 213 -6 299 27 365 11 20 12 32 5 36 -5 4 -13 26 -17 49
-4 23 -9 42 -13 42 -19 0 -141 -114 -141 -131 0 -3 -46 -44 -102 -90 -57 -46
-134 -115 -172 -153 -97 -99 -265 -293 -274 -317 -2 -5 -10 -9 -17 -9 -18 0
-68 -87 -59 -103 4 -6 4 -9 -1 -5 -8 8 -68 -65 -96 -117 -108 -197 -176 -370
-228 -588 -33 -136 -61 -304 -61 -363 0 -22 -5 -46 -10 -54 -12 -18 -5 205 10
306 12 86 12 93 0 74 -5 -8 -14 -40 -20 -70 -6 -30 -16 -68 -22 -83 -9 -24
-15 -27 -37 -21 -38 10 -103 11 -123 2 -14 -7 -18 -4 -18 10 0 15 7 19 33 19
18 -1 37 2 42 5 6 3 29 9 51 13 30 5 44 13 52 31 14 30 -3 74 -29 74 -10 0
-21 5 -24 10 -3 6 1 10 9 10 23 0 19 16 -9 34 -76 50 -117 65 -235 85 -69 12
-129 26 -133 31 -14 13 70 90 127 115 64 29 130 37 226 27 41 -4 91 -5 110 -2
29 4 36 10 38 32 3 22 -3 30 -30 44 -25 14 -29 19 -15 22 9 2 17 7 17 11 0 4
-30 32 -67 61 -55 44 -77 55 -122 62 -98 16 -243 -20 -336 -83 -62 -42 -141
-131 -172 -193 -21 -43 -32 -56 -49 -56 -13 0 -25 4 -29 10 -14 22 87 375 159
552 113 282 274 550 485 808 107 130 316 347 344 356 15 5 26 0 40 -17 16 -20
22 -22 48 -12 27 10 29 10 29 -12 0 -13 -11 -37 -25 -53 -63 -75 -94 -173 -95
-294 0 -80 -12 -100 -30 -52 -6 14 -10 55 -10 92 0 47 -3 63 -10 52 -5 -8 -10
-44 -10 -80 0 -100 31 -196 95 -296 29 -45 45 -58 108 -88 41 -20 86 -36 101
-36 31 0 44 24 28 51 -7 10 -12 24 -12 30 0 6 -24 48 -54 93 -66 100 -90 176
-81 249 8 64 49 157 68 157 8 0 54 -48 102 -106 108 -131 118 -140 178 -170
63 -33 91 -29 95 12 5 52 -34 134 -105 222 -98 121 -123 154 -123 163 0 9 53
26 101 32 52 6 144 -10 192 -35 23 -11 81 -58 128 -104 85 -84 123 -103 136
-68 9 23 -16 153 -38 201 -31 66 -156 160 -234 177 -23 5 -17 -1 26 -26 66
-39 120 -83 112 -92 -3 -3 -20 3 -37 13 -55 33 -160 69 -222 76 -77 8 -164 -7
-255 -46 -56 -24 -74 -28 -85 -18 -18 15 -18 39 1 39 18 0 18 4 3 47 -14 39
-30 25 182 167 227 153 480 281 695 351 89 29 103 37 127 71 15 22 29 55 33
74 3 19 8 43 11 53 3 10 0 17 -8 17 -7 -1 -85 -27 -173 -59z m-960 -661 c3 -5
-3 -10 -14 -10 -12 0 -21 5 -21 10 0 6 6 10 14 10 8 0 18 -4 21 -10z m549 -88
c69 -32 158 -108 182 -154 32 -61 8 -51 -76 33 -99 99 -156 124 -280 124 -104
0 -182 -22 -200 -56 -9 -15 -5 -23 16 -41 14 -13 71 -76 126 -141 90 -106 101
-124 105 -163 2 -24 1 -44 -2 -44 -2 0 -23 7 -45 16 -40 16 -118 96 -224 232
-28 36 -57 62 -67 62 -47 0 -114 -168 -105 -265 6 -77 22 -113 89 -206 53 -74
77 -112 77 -123 0 -3 -13 0 -29 5 -44 15 -98 76 -134 149 -30 61 -32 72 -32
175 0 104 2 114 34 182 42 91 70 118 116 114 34 -2 35 -1 35 33 0 33 4 38 50
61 72 37 114 45 212 41 71 -3 98 -9 152 -34z m221 -702 c-3 -5 -2 -10 3 -10
16 0 20 -63 6 -78 -8 -7 -14 -24 -14 -37 0 -13 -5 -27 -11 -31 -8 -4 -7 -9 2
-15 12 -7 12 -9 0 -9 -7 0 -11 -6 -8 -15 4 -8 2 -17 -3 -20 -6 -4 -10 -11 -10
-16 0 -6 6 -7 13 -3 8 5 7 2 -2 -9 -8 -10 -15 -32 -16 -50 -2 -35 -14 -69 -27
-77 -8 -6 -16 -40 -17 -75 -1 -15 -14 -26 -51 -40 -27 -11 -50 -23 -50 -27 0
-4 -5 -8 -11 -8 -6 0 -9 7 -5 15 9 25 -2 17 -18 -12 -13 -24 -15 -25 -16 -8
-1 20 -1 20 -15 1 -8 -11 -15 -16 -15 -11 0 4 -9 0 -20 -10 -20 -18 -20 -18
-14 15 5 24 4 31 -4 26 -7 -4 -12 -13 -12 -20 0 -7 -8 -20 -18 -29 -15 -13
-21 -14 -31 -4 -11 10 -13 8 -8 -11 4 -18 2 -22 -9 -18 -8 3 -14 1 -14 -4 0
-6 8 -10 18 -10 12 0 10 -4 -8 -13 -21 -11 -26 -11 -32 2 -5 13 -7 12 -8 -4
-2 -11 -2 -23 -1 -27 2 -14 -11 -8 -25 10 -13 16 -13 16 -14 -1 0 -10 -7 -20
-15 -23 -8 -4 -15 -10 -15 -15 0 -6 8 -5 19 1 13 7 22 7 26 0 3 -5 -1 -10 -9
-10 -10 0 -16 -9 -16 -22 -1 -21 -2 -22 -14 -5 -11 14 -15 15 -25 4 -6 -8 -8
-17 -4 -20 3 -4 1 -7 -5 -7 -16 0 -15 37 1 43 6 2 9 8 5 12 -4 4 -13 4 -20 -2
-7 -5 -23 -10 -36 -11 -18 -1 -21 2 -13 12 6 8 9 21 5 30 -4 10 0 18 11 22 9
4 14 13 11 20 -3 7 9 33 27 56 40 54 87 126 87 134 0 3 12 20 26 38 14 17 35
44 47 60 40 54 251 259 302 292 49 32 82 44 70 24z m-704 -547 c-12 -20 -14
-14 -5 12 4 9 9 14 11 11 3 -2 0 -13 -6 -23z m419 -27 c0 -3 -4 -8 -10 -11 -5
-3 -10 -1 -10 4 0 6 5 11 10 11 6 0 10 -2 10 -4z m-48 -28 c-7 -7 -12 -8 -12
-2 0 6 3 14 7 17 3 4 9 5 12 2 2 -3 -1 -11 -7 -17z m-242 -108 c0 -5 -4 -10
-10 -10 -5 0 -10 5 -10 10 0 6 5 10 10 10 6 0 10 -4 10 -10z m-668 -30 c21 -6
42 -19 48 -30 9 -17 5 -18 -78 -18 -192 1 -334 -84 -421 -252 -29 -56 -49 -81
-64 -85 -29 -6 -140 18 -144 31 -5 14 51 26 82 18 28 -7 75 21 75 45 0 53 133
202 220 246 94 48 205 66 282 45z m120 -93 c22 -16 20 -16 -47 -9 -135 14
-208 7 -280 -26 -81 -38 -154 -106 -192 -178 -31 -61 -26 -74 33 -74 16 0 92
-11 168 -25 117 -20 148 -30 203 -62 l65 -38 -69 -6 c-51 -5 -110 1 -237 22
-194 33 -206 31 -206 -31 0 -56 26 -115 82 -186 66 -85 134 -129 243 -158 146
-40 150 -42 80 -51 -205 -27 -413 153 -432 373 l-6 70 32 16 c17 9 31 19 31
22 0 2 -10 18 -21 34 -19 25 -20 33 -10 62 35 100 146 206 260 245 57 20 81
23 173 20 78 -3 113 -8 130 -20z m-692 -457 c5 -8 13 -37 18 -65 6 -27 16 -72
23 -99 12 -43 11 -50 -4 -61 -9 -7 -17 -18 -17 -26 0 -12 -2 -12 -9 0 -5 7
-14 10 -20 7 -6 -4 -9 -11 -6 -16 3 -5 -7 -24 -23 -42 l-30 -32 -7 52 c-8 62
3 259 17 285 11 21 47 19 58 -3z m265 -60 c-3 -5 -13 -10 -21 -10 -8 0 -14 5
-14 10 0 6 9 10 21 10 11 0 17 -4 14 -10z m80 -20 c-3 -5 -11 -10 -16 -10 -6
0 -7 5 -4 10 3 6 11 10 16 10 6 0 7 -4 4 -10z m77 0 c18 0 18 -1 2 -17 -15
-16 -17 -16 -31 3 -12 16 -15 17 -23 4 -5 -8 -10 -10 -10 -4 0 16 12 25 28 19
7 -3 23 -5 34 -5z m88 -21 c0 -5 -9 -9 -20 -9 -11 0 -23 0 -27 -1 -4 0 -9 4
-11 9 -1 5 11 9 28 10 16 0 30 -4 30 -9z m-445 -139 c-3 -5 -11 -10 -16 -10
-6 0 -7 5 -4 10 3 6 11 10 16 10 6 0 7 -4 4 -10z"/>
<path d="M2660 4971 c0 -5 5 -13 10 -16 6 -3 10 -2 10 4 0 5 -4 13 -10 16 -5
3 -10 2 -10 -4z"/>
<path d="M6695 6440 c3 -5 11 -10 16 -10 6 0 7 5 4 10 -3 6 -11 10 -16 10 -6
0 -7 -4 -4 -10z"/>
<path d="M6740 6406 c0 -2 8 -10 18 -17 15 -13 16 -12 3 4 -13 16 -21 21 -21
13z"/>
<path d="M6790 6355 c7 -8 17 -15 22 -15 6 0 5 7 -2 15 -7 8 -17 15 -22 15 -6
0 -5 -7 2 -15z"/>
<path d="M5075 6160 c3 -5 8 -10 11 -10 2 0 4 5 4 10 0 6 -5 10 -11 10 -5 0
-7 -4 -4 -10z"/>
<path d="M5136 4529 c-38 -125 -56 -192 -53 -195 2 -3 19 41 37 96 17 56 29
104 26 107 -3 3 -7 0 -10 -8z"/>
<path d="M1280 2991 c-6 -12 -7 -21 -1 -21 10 0 24 30 17 37 -2 3 -9 -5 -16
-16z"/>
<path d="M1046 2636 c-30 -51 -34 -70 -8 -35 18 25 44 79 38 79 -2 0 -16 -20
-30 -44z"/>
<path d="M992 2550 c-35 -56 -104 -192 -99 -196 2 -3 22 26 43 63 20 37 46 83
56 102 21 37 21 64 0 31z"/>
<path d="M761 2077 c-43 -109 -79 -209 -72 -201 17 17 96 223 89 230 -2 2 -10
-11 -17 -29z"/>
</g>
</svg>
