<?xml version="1.0"?>
<svg xmlns="http://www.w3.org/2000/svg" xmlns:lc="http://www.librecad.org" xmlns:xlink="http://www.w3.org/1999/xlink" width="207.84609691" height="200" viewBox="0 0 207.84609691 200" fill-opacity="0" fill="#888" stroke-opacity="0.03" stroke="#888" stroke-width="1">
    <g lc:layername="circles">
        <circle cx="138.56406461" cy="160" r="40"/>
        <circle cx="69.2820323" cy="160" r="40"/>
        <circle cx="69.2820323" cy="40" r="40"/>
        <circle cx="138.56406461" cy="40" r="40"/>
        <path d="M0,80 A40,40 0 0,0 0,40 "/>
        <path d="M0,120 A40,40 0 0,0 0,80 "/>
        <path d="M0,120 A40,40 0 1,0 0,40 "/>
        <path d="M0,160 A40,40 0 0,0 0,80 "/>
        <path d="M0,160 A40,40 0 0,0 0,120 "/>
        <path d="M69.2820323,200 A40,40 0 1,0 0,160 "/>
        <path d="M138.56406461,200 A40,40 0 0,0 69.2820323,200 "/>
        <path d="M207.84609691,120 A40,40 0 0,0 207.84609691,160 "/>
        <path d="M207.84609691,160 A40,40 0 0,0 138.56406461,200 "/>
        <path d="M207.84609691,80 A40,40 0 1,0 207.84609691,160 "/>
        <path d="M207.84609657,80.00000058 A40,40 0 0,0 207.84609691,120 "/>
        <path d="M207.84609691,40 A40,40 0 1,0 207.84609691,120 "/>
        <path d="M207.84609691,40 A40,40 0 0,0 207.84609691,80 "/>
        <path d="M0,40 A40,40 0 1,0 69.2820323,0 "/>
        <path d="M69.2820323,0 A40,40 0 0,0 138.56406461,0 "/>
        <path d="M138.56406461,0 A40,40 0 1,0 207.84609691,40 "/>
        <path d="M0,80 A40,40 0 1,0 0,40 "/>
        <path d="M0,120 A40,40 0 1,0 0,80 "/>
        <path d="M0,160 A40,40 0 1,0 0,120 "/>
        <path d="M138.56406461,200 A40,40 0 1,0 69.2820323,200 "/>
        <path d="M207.84609691,120 A40,40 0 1,0 207.84609691,160 "/>
        <path d="M207.84609691,80 A40,40 0 1,0 207.84609691,120 "/>
        <path d="M207.84609691,40 A40,40 0 1,0 207.84609691,80 "/>
        <path d="M69.2820323,0 A40,40 0 1,0 138.56406461,0 "/>
        <path d="M29.2820323,0 A40,40 0 0,0 109.2820323,0 "/>
        <path d="M0,40 A40,40 0 0,0 40,0 "/>
        <path d="M0,80 A40,40 0 0,0 0.00000173,0 "/>
        <path d="M98.56406461,0 A40,40 0 0,0 178.56406461,0 "/>
        <path d="M207.84609294,0 A40,40 0 0,0 207.84609691,80 "/>
        <path d="M138.56406253,0 A40,40 0 1,0 138.56406253,0 "/>
        <path d="M167.84609691,0 A40,40 0 0,0 207.84609691,40 "/>
        <path d="M0,0 A40,40 0 0,0 69.2820323,0 "/>
        <path d="M0,200 A40,40 0 0,0 0,120 "/>
        <path d="M69.2820323,200 A40,40 0 0,0 0,200 "/>
        <path d="M109.2820323,200 A40,40 0 1,0 29.2820323,200 "/>
        <path d="M40,200 A40,40 0 0,0 0,160 "/>
        <path d="M207.84609691,160 A40,40 0 0,0 167.84609691,200 "/>
        <path d="M178.56406461,200 A40,40 0 0,0 98.56406461,200 "/>
        <path d="M207.84609691,200 A40,40 0 0,0 138.56406461,200 "/>
        <path d="M207.84609691,120 A40,40 0 0,0 207.84609445,200 "/>
        <path d="M138.56406461,0 A40,40 0 0,0 207.84609691,0 "/>
        <path d="M0,0 A40,40 0 0,1 0,40 "/>
        <path d="M207.84609691,40 A40,40 0 0,1 207.84609691,0 "/>
        <path d="M0,160 A40,40 0 0,1 0,200 "/>
        <path d="M207.84609691,200 A40,40 0 0,1 207.84609691,160 "/>
    </g>
    <g lc:layername="circles inner" fill-opacity="0.005" stroke-opacity="0.04">
        <circle cx="103.92304845" cy="100" r="40"/>
        <circle cx="69.2820323" cy="120" r="40"/>
        <circle cx="103.92304845" cy="140" r="40"/>
        <circle cx="138.56406461" cy="120" r="40"/>
        <circle cx="138.56406461" cy="80" r="40"/>
        <circle cx="103.92304845" cy="60" r="40"/>
        <circle cx="69.2820323" cy="80" r="40"/>
    </g>
</svg>
